<svg width="640" height="480" xmlns="http://www.w3.org/2000/svg">
 <!-- Created with Method Draw - http://github.com/duopixel/Method-Draw/ -->
 <g>
  <title>background</title>
  <rect fill="#ffffff" id="canvas_background" height="482" width="642" y="-1" x="-1"/>
  <g display="none" overflow="visible" y="0" x="0" height="100%" width="100%" id="canvasGrid">
   <rect fill="url(#gridpattern)" stroke-width="0" y="0" x="0" height="100%" width="100%"/>
  </g>
 </g>
 <g>
  <title>Layer 1</title>
  <g id="svg_7">
   <line stroke-linecap="undefined" stroke-linejoin="undefined" id="svg_2" y2="240" x2="530.075287" y1="240" x1="91.075287" stroke-width="1.5" stroke="#000" fill="none"/>
   <path id="svg_4" d="m537.828125,240l-13.903442,-3l25,3l-25,3l13.903442,-3z" fill-opacity="null" stroke-opacity="null" stroke-width="1.5" stroke="#000" fill="none"/>
  </g>
  <g id="svg_9">
   <line stroke-linecap="undefined" stroke-linejoin="undefined" id="svg_1" y2="425.987518" x2="322.150635" y1="70.987518" x1="320.150635" stroke-width="1.5" stroke="#000" fill="none"/>
   <path transform="rotate(-90, 320, 66.5125)" id="svg_5" d="m321.403442,66.512497l-13.903442,-3l25.000061,3l-25.000061,3l13.903442,-3z" fill-opacity="null" stroke-opacity="null" stroke-width="1.5" stroke="#000" fill="none"/>
  </g>
  <path id="svg_11" d="m155.952499,177.695007l0,0c0,-2.209167 1.790894,-4 4,-4l0,0c1.060867,0 2.078247,0.421387 2.828445,1.17157c0.750168,0.750122 1.171555,1.767517 1.171555,2.82843l0,0c0,2.209106 -1.790817,4 -4,4l0,0c-2.209106,0 -4,-1.790894 -4,-4l0,0zm2.000076,0l0,0c0,1.104553 0.895386,2 1.999924,2c1.104568,0 2,-0.895447 2,-2c0,-1.104614 -0.895432,-2 -2,-2l0,0c-1.104538,0 -1.999924,0.895386 -1.999924,2z" stroke-width="1.5" stroke="#c9c91a" fill="#3f7f00"/>
  <path id="svg_12" d="m155.952499,177.695007l0,0c0,-2.209167 1.790894,-4 4,-4l0,0c1.060867,0 2.078247,0.421387 2.828445,1.17157c0.750168,0.750122 1.171555,1.767517 1.171555,2.82843l0,0c0,2.209106 -1.790817,4 -4,4l0,0c-2.209106,0 -4,-1.790894 -4,-4l0,0zm2.000076,0l0,0c0,1.104553 0.895386,2 1.999924,2c1.104568,0 2,-0.895447 2,-2c0,-1.104614 -0.895432,-2 -2,-2l0,0c-1.104538,0 -1.999924,0.895386 -1.999924,2z" stroke-width="1.5" stroke="#c9c91a" fill="#3f7f00"/>
  <path id="svg_13" d="m155.952499,177.695007l0,0c0,-2.209167 1.790894,-4 4,-4l0,0c1.060867,0 2.078247,0.421387 2.828445,1.17157c0.750168,0.750122 1.171555,1.767517 1.171555,2.82843l0,0c0,2.209106 -1.790817,4 -4,4l0,0c-2.209106,0 -4,-1.790894 -4,-4l0,0zm2.000076,0l0,0c0,1.104553 0.895386,2 1.999924,2c1.104568,0 2,-0.895447 2,-2c0,-1.104614 -0.895432,-2 -2,-2l0,0c-1.104538,0 -1.999924,0.895386 -1.999924,2z" stroke-width="1.5" stroke="#c9c91a" fill="#3f7f00"/>
  <path id="svg_14" d="m155.952499,177.695007l0,0c0,-2.209167 1.790894,-4 4,-4l0,0c1.060867,0 2.078247,0.421387 2.828445,1.17157c0.750168,0.750122 1.171555,1.767517 1.171555,2.82843l0,0c0,2.209106 -1.790817,4 -4,4l0,0c-2.209106,0 -4,-1.790894 -4,-4l0,0zm2.000076,0l0,0c0,1.104553 0.895386,2 1.999924,2c1.104568,0 2,-0.895447 2,-2c0,-1.104614 -0.895432,-2 -2,-2l0,0c-1.104538,0 -1.999924,0.895386 -1.999924,2z" stroke-width="1.5" stroke="#c9c91a" fill="#3f7f00"/>
  <path id="svg_15" d="m240.952499,149.695007l0,0c0,-2.209167 1.790894,-4 4,-4l0,0c1.060867,0 2.078247,0.421387 2.828445,1.17157c0.750168,0.750122 1.171555,1.767517 1.171555,2.82843l0,0c0,2.209106 -1.790817,4 -4,4l0,0c-2.209106,0 -4,-1.790894 -4,-4l0,0zm2.000076,0l0,0c0,1.104553 0.895386,2 1.999924,2c1.104568,0 2,-0.895447 2,-2c0,-1.104614 -0.895432,-2 -2,-2l0,0c-1.104538,0 -1.999924,0.895386 -1.999924,2z" stroke-width="1.5" stroke="#007f00" fill="#3f7f00"/>
  <path id="svg_16" d="m219.952499,131.695007l0,0c0,-2.209167 1.790894,-4 4,-4l0,0c1.060867,0 2.078247,0.421387 2.828445,1.17157c0.750168,0.750122 1.171555,1.767517 1.171555,2.82843l0,0c0,2.209106 -1.790817,4 -4,4l0,0c-2.209106,0 -4,-1.790894 -4,-4l0,0zm2.000076,0l0,0c0,1.104553 0.895386,2 1.999924,2c1.104568,0 2,-0.895447 2,-2c0,-1.104614 -0.895432,-2 -2,-2l0,0c-1.104538,0 -1.999924,0.895386 -1.999924,2z" stroke-width="1.5" stroke="#007f00" fill="#3f7f00"/>
  <path id="svg_17" d="m191.952499,154.695007l0,0c0,-2.209167 1.790894,-4 4,-4l0,0c1.060867,0 2.078247,0.421387 2.828445,1.17157c0.750168,0.750122 1.171555,1.767517 1.171555,2.82843l0,0c0,2.209106 -1.790817,4 -4,4l0,0c-2.209106,0 -4,-1.790894 -4,-4l0,0zm2.000076,0l0,0c0,1.104553 0.895386,2 1.999924,2c1.104568,0 2,-0.895447 2,-2c0,-1.104614 -0.895432,-2 -2,-2l0,0c-1.104538,0 -1.999924,0.895386 -1.999924,2z" stroke-width="1.5" stroke="#007f00" fill="#3f7f00"/>
  <path id="svg_18" d="m155.952499,177.695007l0,0c0,-2.209167 1.790894,-4 4,-4l0,0c1.060867,0 2.078247,0.421387 2.828445,1.17157c0.750168,0.750122 1.171555,1.767517 1.171555,2.82843l0,0c0,2.209106 -1.790817,4 -4,4l0,0c-2.209106,0 -4,-1.790894 -4,-4l0,0zm2.000076,0l0,0c0,1.104553 0.895386,2 1.999924,2c1.104568,0 2,-0.895447 2,-2c0,-1.104614 -0.895432,-2 -2,-2l0,0c-1.104538,0 -1.999924,0.895386 -1.999924,2z" stroke-width="1.5" stroke="#007f00" fill="#3f7f00"/>
  <path id="svg_19" d="m253.952499,118.695007l0,0c0,-2.209167 1.790894,-4 4.000015,-4l0,0c1.060852,0 2.078247,0.421387 2.82843,1.17157c0.750183,0.750122 1.17157,1.767517 1.17157,2.82843l0,0c0,2.209106 -1.790833,4 -4,4l0,0c-2.209122,0 -4.000015,-1.790894 -4.000015,-4l0,0zm2.000076,0l0,0c0,1.104553 0.895386,2 1.999939,2c1.104553,0 2,-0.895447 2,-2c0,-1.104614 -0.895447,-2 -2,-2l0,0c-1.104553,0 -1.999939,0.895386 -1.999939,2z" stroke-width="1.5" stroke="#007f00" fill="#3f7f00"/>
  <path transform="rotate(-16.6659, 215.952, 155.695)" id="svg_20" d="m211.952499,155.695007l0,0c0,-2.209167 1.790894,-4 4,-4l0,0c1.060867,0 2.078247,0.421387 2.828445,1.17157c0.750168,0.750122 1.171555,1.767517 1.171555,2.82843l0,0c0,2.209106 -1.790817,4 -4,4l0,0c-2.209106,0 -4,-1.790894 -4,-4l0,0zm2.000076,0l0,0c0,1.104553 0.895386,2 1.999924,2c1.104568,0 2,-0.895447 2,-2c0,-1.104614 -0.895432,-2 -2,-2l0,0c-1.104538,0 -1.999924,0.895386 -1.999924,2z" stroke-width="1.5" stroke="#007f00" fill="#3f7f00"/>
  <path id="svg_21" d="m201.952499,194.695007l0,0c0,-2.209167 1.790894,-4 4,-4l0,0c1.060867,0 2.078247,0.421387 2.828445,1.17157c0.750168,0.750122 1.171555,1.767517 1.171555,2.82843l0,0c0,2.209106 -1.790817,4 -4,4l0,0c-2.209106,0 -4,-1.790894 -4,-4l0,0zm2.000076,0l0,0c0,1.104553 0.895386,2 1.999924,2c1.104568,0 2,-0.895447 2,-2c0,-1.104614 -0.895432,-2 -2,-2l0,0c-1.104538,0 -1.999924,0.895386 -1.999924,2z" stroke-width="1.5" stroke="#007f00" fill="#3f7f00"/>
  <line transform="rotate(0.18687, 201, 168)" stroke-linecap="null" stroke-linejoin="null" id="svg_22" y2="9.039076" x2="386.534311" y1="326.960925" x1="15.4657" fill-opacity="null" stroke-width="3" stroke="#007f00" fill="none"/>
  <path id="svg_23" d="m360.952515,325.695007l0,0c0,-2.209167 1.790894,-4 4,-4l0,0c1.060852,0 2.078247,0.421387 2.82843,1.17157c0.750183,0.750122 1.17157,1.767517 1.17157,2.82843l0,0c0,2.209106 -1.790833,4 -4,4l0,0c-2.209106,0 -4,-1.790894 -4,-4l0,0zm2.000061,0l0,0c0,1.104553 0.895386,2 1.999939,2c1.104553,0 2,-0.895447 2,-2c0,-1.104614 -0.895447,-2 -2,-2l0,0c-1.104553,0 -1.999939,0.895386 -1.999939,2z" stroke-width="1.5" stroke="#c9c91a" fill="#3f7f00"/>
  <path id="svg_24" d="m360.952515,325.695007l0,0c0,-2.209167 1.790894,-4 4,-4l0,0c1.060852,0 2.078247,0.421387 2.82843,1.17157c0.750183,0.750122 1.17157,1.767517 1.17157,2.82843l0,0c0,2.209106 -1.790833,4 -4,4l0,0c-2.209106,0 -4,-1.790894 -4,-4l0,0zm2.000061,0l0,0c0,1.104553 0.895386,2 1.999939,2c1.104553,0 2,-0.895447 2,-2c0,-1.104614 -0.895447,-2 -2,-2l0,0c-1.104553,0 -1.999939,0.895386 -1.999939,2z" stroke-width="1.5" stroke="#c9c91a" fill="#3f7f00"/>
  <path id="svg_25" d="m360.952515,325.695007l0,0c0,-2.209167 1.790894,-4 4,-4l0,0c1.060852,0 2.078247,0.421387 2.82843,1.17157c0.750183,0.750122 1.17157,1.767517 1.17157,2.82843l0,0c0,2.209106 -1.790833,4 -4,4l0,0c-2.209106,0 -4,-1.790894 -4,-4l0,0zm2.000061,0l0,0c0,1.104553 0.895386,2 1.999939,2c1.104553,0 2,-0.895447 2,-2c0,-1.104614 -0.895447,-2 -2,-2l0,0c-1.104553,0 -1.999939,0.895386 -1.999939,2z" stroke-width="1.5" stroke="#c9c91a" fill="#3f7f00"/>
  <path id="svg_26" d="m360.952515,325.695007l0,0c0,-2.209167 1.790894,-4 4,-4l0,0c1.060852,0 2.078247,0.421387 2.82843,1.17157c0.750183,0.750122 1.17157,1.767517 1.17157,2.82843l0,0c0,2.209106 -1.790833,4 -4,4l0,0c-2.209106,0 -4,-1.790894 -4,-4l0,0zm2.000061,0l0,0c0,1.104553 0.895386,2 1.999939,2c1.104553,0 2,-0.895447 2,-2c0,-1.104614 -0.895447,-2 -2,-2l0,0c-1.104553,0 -1.999939,0.895386 -1.999939,2z" stroke-width="1.5" stroke="#c9c91a" fill="#3f7f00"/>
  <path id="svg_27" d="m401.952515,310.695007l0,0c0,-2.209167 1.790894,-4 4,-4l0,0c1.060852,0 2.078247,0.421387 2.82843,1.17157c0.750183,0.750122 1.17157,1.767517 1.17157,2.82843l0,0c0,2.209106 -1.790833,4 -4,4l0,0c-2.209106,0 -4,-1.790894 -4,-4l0,0zm2.000061,0l0,0c0,1.104553 0.895386,2 1.999939,2c1.104553,0 2,-0.895447 2,-2c0,-1.104614 -0.895447,-2 -2,-2l0,0c-1.104553,0 -1.999939,0.895386 -1.999939,2z" stroke-width="1.5" stroke="#bf0000" fill="#7f0000"/>
  <path id="svg_28" d="m424.952515,279.695007l0,0c0,-2.209167 1.790894,-4 4,-4l0,0c1.060852,0 2.078247,0.421387 2.82843,1.17157c0.750183,0.750122 1.17157,1.767517 1.17157,2.82843l0,0c0,2.209106 -1.790833,4 -4,4l0,0c-2.209106,0 -4,-1.790894 -4,-4l0,0zm2.000061,0l0,0c0,1.104553 0.895386,2 1.999939,2c1.104553,0 2,-0.895447 2,-2c0,-1.104614 -0.895447,-2 -2,-2l0,0c-1.104553,0 -1.999939,0.895386 -1.999939,2z" stroke-width="1.5" stroke="#bf0000" fill="#7f0000"/>
  <path id="svg_29" d="m481.952515,293.695007l0,0c0,-2.209167 1.790894,-4 4,-4l0,0c1.060852,0 2.078247,0.421387 2.82843,1.17157c0.750183,0.750122 1.17157,1.767517 1.17157,2.82843l0,0c0,2.209106 -1.790833,4 -4,4l0,0c-2.209106,0 -4,-1.790894 -4,-4l0,0zm2.000061,0l0,0c0,1.104553 0.895386,2 1.999939,2c1.104553,0 2,-0.895447 2,-2c0,-1.104614 -0.895447,-2 -2,-2l0,0c-1.104553,0 -1.999939,0.895386 -1.999939,2z" stroke-width="1.5" stroke="#bf0000" fill="#7f0000"/>
  <path id="svg_30" d="m360.952515,325.695007l0,0c0,-2.209167 1.790894,-4 4,-4l0,0c1.060852,0 2.078247,0.421387 2.82843,1.17157c0.750183,0.750122 1.17157,1.767517 1.17157,2.82843l0,0c0,2.209106 -1.790833,4 -4,4l0,0c-2.209106,0 -4,-1.790894 -4,-4l0,0zm2.000061,0l0,0c0,1.104553 0.895386,2 1.999939,2c1.104553,0 2,-0.895447 2,-2c0,-1.104614 -0.895447,-2 -2,-2l0,0c-1.104553,0 -1.999939,0.895386 -1.999939,2z" stroke-width="1.5" stroke="#7f0000" fill="#7f0000"/>
  <path id="svg_31" d="m446.952515,261.695007l0,0c0,-2.209167 1.790894,-4 4,-4l0,0c1.060852,0 2.078247,0.421387 2.82843,1.17157c0.750183,0.750122 1.17157,1.767517 1.17157,2.82843l0,0c0,2.209106 -1.790833,4 -4,4l0,0c-2.209106,0 -4,-1.790894 -4,-4l0,0zm2.000061,0l0,0c0,1.104553 0.895386,2 1.999939,2c1.104553,0 2,-0.895447 2,-2c0,-1.104614 -0.895447,-2 -2,-2l0,0c-1.104553,0 -1.999939,0.895386 -1.999939,2z" stroke-width="1.5" stroke="#bf0000" fill="#7f0000"/>
  <path transform="rotate(-16.6659, 434.953, 318.695)" id="svg_32" d="m430.952515,318.695007l0,0c0,-2.209167 1.790894,-4 4,-4l0,0c1.060852,0 2.078247,0.421387 2.82843,1.17157c0.750183,0.750122 1.17157,1.767517 1.17157,2.82843l0,0c0,2.209106 -1.790833,4 -4,4l0,0c-2.209106,0 -4,-1.790894 -4,-4l0,0zm2.000061,0l0,0c0,1.104553 0.895386,2 1.999939,2c1.104553,0 2,-0.895447 2,-2c0,-1.104614 -0.895447,-2 -2,-2l0,0c-1.104553,0 -1.999939,0.895386 -1.999939,2z" stroke-width="1.5" stroke="#bf0000" fill="#7f0000"/>
  <path id="svg_33" d="m400.952515,342.695007l0,0c0,-2.209167 1.790894,-4 4,-4l0,0c1.060852,0 2.078247,0.421387 2.82843,1.17157c0.750183,0.750122 1.17157,1.767517 1.17157,2.82843l0,0c0,2.209106 -1.790833,4 -4,4l0,0c-2.209106,0 -4,-1.790894 -4,-4l0,0zm2.000061,0l0,0c0,1.104553 0.895386,2 1.999939,2c1.104553,0 2,-0.895447 2,-2c0,-1.104614 -0.895447,-2 -2,-2l0,0c-1.104553,0 -1.999939,0.895386 -1.999939,2z" stroke-width="1.5" stroke="#bf0000" fill="#7f0000"/>
  <line transform="rotate(0.18687, 414.5, 319)" stroke-linecap="null" stroke-linejoin="null" id="svg_34" y2="163.011329" x2="608.544053" y1="474.988664" x1="220.455961" stroke-width="3" stroke="#bf0000" fill="none"/>
  <line transform="rotate(-9.88772, 328, 234)" stroke-linecap="null" stroke-linejoin="null" id="svg_35" y2="468.038186" x2="546.605287" y1="-0.038225" x1="109.394672" fill-opacity="null" stroke-width="4" stroke="#7f007f" fill="none"/>
  <text style="cursor: move;" xml:space="preserve" text-anchor="start" font-family="'Shadows Into Light', serif" font-size="24" id="svg_36" y="235" x="544.5" fill-opacity="null" stroke-opacity="null" stroke-width="0" stroke="#7f007f" fill="#000000">x</text>
  <text style="cursor: move;" xml:space="preserve" text-anchor="start" font-family="'Shadows Into Light', serif" font-size="24" id="svg_37" y="56" x="290.5" fill-opacity="null" stroke-opacity="null" stroke-width="0" stroke="#7f007f" fill="#000000">x</text>
  <text xml:space="preserve" text-anchor="start" font-family="'Shadows Into Light', serif" font-size="16" id="svg_38" y="45" x="302.5" fill-opacity="null" stroke-opacity="null" stroke-width="0" stroke="#7f007f" fill="#000000">2</text>
  <text xml:space="preserve" text-anchor="start" font-family="'Shadows Into Light', serif" font-size="16" id="svg_39" y="224" x="555.5" fill-opacity="null" stroke-opacity="null" stroke-width="0" stroke="#7f007f" fill="#000000">1</text>
 </g>
</svg>