<?xml version="1.0" encoding="UTF-8" standalone="no"?>
<svg
   xmlns:dc="http://purl.org/dc/elements/1.1/"
   xmlns:cc="http://creativecommons.org/ns#"
   xmlns:rdf="http://www.w3.org/1999/02/22-rdf-syntax-ns#"
   xmlns:svg="http://www.w3.org/2000/svg"
   xmlns="http://www.w3.org/2000/svg"
   xmlns:sodipodi="http://sodipodi.sourceforge.net/DTD/sodipodi-0.dtd"
   xmlns:inkscape="http://www.inkscape.org/namespaces/inkscape"
   width="640"
   height="480"
   version="1.1"
   id="svg141"
   sodipodi:docname="fit-dataset.svg"
   inkscape:export-filename="/home/sinopsys/Projects/data-analysis-pi/homeworks/theoretical/3/fit-dataset.png"
   inkscape:export-xdpi="96"
   inkscape:export-ydpi="96"
   inkscape:version="0.92.2 5c3e80d, 2017-08-06">
  <metadata
     id="metadata147">
    <rdf:RDF>
      <cc:Work
         rdf:about="">
        <dc:format>image/svg+xml</dc:format>
        <dc:type
           rdf:resource="http://purl.org/dc/dcmitype/StillImage" />
      </cc:Work>
    </rdf:RDF>
  </metadata>
  <defs
     id="defs145" />
  <sodipodi:namedview
     pagecolor="#ffffff"
     bordercolor="#666666"
     borderopacity="1"
     objecttolerance="10"
     gridtolerance="10"
     guidetolerance="10"
     inkscape:pageopacity="0"
     inkscape:pageshadow="2"
     inkscape:window-width="1280"
     inkscape:window-height="784"
     id="namedview143"
     showgrid="false"
     inkscape:zoom="1.1520833"
     inkscape:cx="320"
     inkscape:cy="240"
     inkscape:window-x="0"
     inkscape:window-y="16"
     inkscape:window-maximized="0"
     inkscape:current-layer="svg141" />
  <!-- Created with Method Draw - http://github.com/duopixel/Method-Draw/ -->
  <g
     id="g102">
    <title
       id="title97">background</title>
    <rect
       x="-1"
       y="-1"
       width="642"
       height="482"
       id="canvas_background"
       fill="#ffffff" />
    <g
       id="canvasGrid"
       display="none">
      <rect
         id="svg_3"
         width="100%"
         height="100%"
         x="0"
         y="0"
         stroke-width="0"
         fill="url(#gridpattern)" />
    </g>
  </g>
  <g
     id="g139"
     inkscape:export-xdpi="96"
     inkscape:export-ydpi="96">
    <title
       id="title104">Layer 1</title>
    <g
       id="svg_7">
      <line
         fill="none"
         stroke="#000"
         stroke-width="1.5"
         x1="91.075287"
         y1="240"
         x2="530.075287"
         y2="240"
         id="svg_2"
         stroke-linejoin="undefined"
         stroke-linecap="undefined" />
      <path
         fill="none"
         stroke="#000"
         stroke-width="1.5"
         stroke-opacity="null"
         fill-opacity="null"
         d="m537.828125,240l-13.903442,-3l25,3l-25,3l13.903442,-3z"
         id="svg_4" />
    </g>
    <g
       id="svg_9">
      <line
         fill="none"
         stroke="#000"
         stroke-width="1.5"
         x1="320.150635"
         y1="70.987518"
         x2="322.150635"
         y2="425.987518"
         id="svg_1"
         stroke-linejoin="undefined"
         stroke-linecap="undefined" />
      <path
         fill="none"
         stroke="#000"
         stroke-width="1.5"
         stroke-opacity="null"
         fill-opacity="null"
         d="m321.403442,66.512497l-13.903442,-2.999996l25.000061,2.999996l-25.000061,3l13.903442,-3z"
         id="svg_5"
         transform="rotate(-90, 320, 66.5125)" />
    </g>
    <path
       fill="#3f7f00"
       stroke="#c9c91a"
       stroke-width="1.5"
       d="m155.952499,177.695007l0,0c0,-2.209167 1.790894,-4 4,-4l0,0c1.060867,0 2.078247,0.421387 2.828445,1.17157c0.750168,0.750122 1.171555,1.767517 1.171555,2.82843l0,0c0,2.209106 -1.790817,4 -4,4l0,0c-2.209106,0 -4,-1.790894 -4,-4l0,0zm2.000076,0l0,0c0,1.104553 0.895386,2 1.999924,2c1.104568,0 2,-0.895447 2,-2c0,-1.104614 -0.895432,-2 -2,-2l0,0c-1.104538,0 -1.999924,0.895386 -1.999924,2z"
       id="svg_11" />
    <path
       fill="#3f7f00"
       stroke="#c9c91a"
       stroke-width="1.5"
       d="m155.952499,177.695007l0,0c0,-2.209167 1.790894,-4 4,-4l0,0c1.060867,0 2.078247,0.421387 2.828445,1.17157c0.750168,0.750122 1.171555,1.767517 1.171555,2.82843l0,0c0,2.209106 -1.790817,4 -4,4l0,0c-2.209106,0 -4,-1.790894 -4,-4l0,0zm2.000076,0l0,0c0,1.104553 0.895386,2 1.999924,2c1.104568,0 2,-0.895447 2,-2c0,-1.104614 -0.895432,-2 -2,-2l0,0c-1.104538,0 -1.999924,0.895386 -1.999924,2z"
       id="svg_12" />
    <path
       fill="#3f7f00"
       stroke="#c9c91a"
       stroke-width="1.5"
       d="m155.952499,177.695007l0,0c0,-2.209167 1.790894,-4 4,-4l0,0c1.060867,0 2.078247,0.421387 2.828445,1.17157c0.750168,0.750122 1.171555,1.767517 1.171555,2.82843l0,0c0,2.209106 -1.790817,4 -4,4l0,0c-2.209106,0 -4,-1.790894 -4,-4l0,0zm2.000076,0l0,0c0,1.104553 0.895386,2 1.999924,2c1.104568,0 2,-0.895447 2,-2c0,-1.104614 -0.895432,-2 -2,-2l0,0c-1.104538,0 -1.999924,0.895386 -1.999924,2z"
       id="svg_13" />
    <path
       fill="#3f7f00"
       stroke="#c9c91a"
       stroke-width="1.5"
       d="m155.952499,177.695007l0,0c0,-2.209167 1.790894,-4 4,-4l0,0c1.060867,0 2.078247,0.421387 2.828445,1.17157c0.750168,0.750122 1.171555,1.767517 1.171555,2.82843l0,0c0,2.209106 -1.790817,4 -4,4l0,0c-2.209106,0 -4,-1.790894 -4,-4l0,0zm2.000076,0l0,0c0,1.104553 0.895386,2 1.999924,2c1.104568,0 2,-0.895447 2,-2c0,-1.104614 -0.895432,-2 -2,-2l0,0c-1.104538,0 -1.999924,0.895386 -1.999924,2z"
       id="svg_14" />
    <path
       fill="#3f7f00"
       stroke="#007f00"
       stroke-width="1.5"
       d="m240.952499,149.695007l0,0c0,-2.209167 1.790894,-4 4,-4l0,0c1.060867,0 2.078247,0.421387 2.828445,1.17157c0.750168,0.750122 1.171555,1.767517 1.171555,2.82843l0,0c0,2.209106 -1.790817,4 -4,4l0,0c-2.209106,0 -4,-1.790894 -4,-4l0,0zm2.000076,0l0,0c0,1.104553 0.895386,2 1.999924,2c1.104568,0 2,-0.895447 2,-2c0,-1.104614 -0.895432,-2 -2,-2l0,0c-1.104538,0 -1.999924,0.895386 -1.999924,2z"
       id="svg_15" />
    <path
       fill="#3f7f00"
       stroke="#007f00"
       stroke-width="1.5"
       d="m219.952499,131.695007l0,0c0,-2.209167 1.790894,-4 4,-4l0,0c1.060867,0 2.078247,0.421387 2.828445,1.17157c0.750168,0.750122 1.171555,1.767517 1.171555,2.82843l0,0c0,2.209106 -1.790817,4 -4,4l0,0c-2.209106,0 -4,-1.790894 -4,-4l0,0zm2.000076,0l0,0c0,1.104553 0.895386,2 1.999924,2c1.104568,0 2,-0.895447 2,-2c0,-1.104614 -0.895432,-2 -2,-2l0,0c-1.104538,0 -1.999924,0.895386 -1.999924,2z"
       id="svg_16" />
    <path
       fill="#3f7f00"
       stroke="#007f00"
       stroke-width="1.5"
       d="m191.952499,154.695007l0,0c0,-2.209167 1.790894,-4 4,-4l0,0c1.060867,0 2.078247,0.421387 2.828445,1.17157c0.750168,0.750122 1.171555,1.767517 1.171555,2.82843l0,0c0,2.209106 -1.790817,4 -4,4l0,0c-2.209106,0 -4,-1.790894 -4,-4l0,0zm2.000076,0l0,0c0,1.104553 0.895386,2 1.999924,2c1.104568,0 2,-0.895447 2,-2c0,-1.104614 -0.895432,-2 -2,-2l0,0c-1.104538,0 -1.999924,0.895386 -1.999924,2z"
       id="svg_17" />
    <path
       fill="#3f7f00"
       stroke="#007f00"
       stroke-width="1.5"
       d="m155.952499,177.695007l0,0c0,-2.209167 1.790894,-4 4,-4l0,0c1.060867,0 2.078247,0.421387 2.828445,1.17157c0.750168,0.750122 1.171555,1.767517 1.171555,2.82843l0,0c0,2.209106 -1.790817,4 -4,4l0,0c-2.209106,0 -4,-1.790894 -4,-4l0,0zm2.000076,0l0,0c0,1.104553 0.895386,2 1.999924,2c1.104568,0 2,-0.895447 2,-2c0,-1.104614 -0.895432,-2 -2,-2l0,0c-1.104538,0 -1.999924,0.895386 -1.999924,2z"
       id="svg_18" />
    <path
       fill="#3f7f00"
       stroke="#007f00"
       stroke-width="1.5"
       d="m253.952499,118.695007l0,0c0,-2.209167 1.790894,-4 4.000015,-4l0,0c1.060852,0 2.078247,0.421379 2.82843,1.17157c0.750183,0.750122 1.17157,1.767509 1.17157,2.82843l0,0c0,2.209106 -1.790833,4 -4,4l0,0c-2.209122,0 -4.000015,-1.790894 -4.000015,-4l0,0zm2.000076,0l0,0c0,1.104553 0.895386,2 1.999939,2c1.104553,0 2,-0.895447 2,-2c0,-1.104614 -0.895447,-2 -2,-2l0,0c-1.104553,0 -1.999939,0.895386 -1.999939,2z"
       id="svg_19" />
    <path
       fill="#3f7f00"
       stroke="#007f00"
       stroke-width="1.5"
       d="m211.952499,155.695007l0,0c0,-2.209167 1.790894,-4 4,-4l0,0c1.060867,0 2.078247,0.421387 2.828445,1.17157c0.750168,0.750122 1.171555,1.767517 1.171555,2.82843l0,0c0,2.209106 -1.790817,4 -4,4l0,0c-2.209106,0 -4,-1.790894 -4,-4l0,0zm2.000076,0l0,0c0,1.104553 0.895386,2 1.999924,2c1.104568,0 2,-0.895447 2,-2c0,-1.104614 -0.895432,-2 -2,-2l0,0c-1.104538,0 -1.999924,0.895386 -1.999924,2z"
       id="svg_20"
       transform="rotate(-16.6659, 215.952, 155.695)" />
    <path
       fill="#3f7f00"
       stroke="#007f00"
       stroke-width="1.5"
       d="m201.952499,194.695007l0,0c0,-2.209167 1.790894,-4 4,-4l0,0c1.060867,0 2.078247,0.421387 2.828445,1.17157c0.750168,0.750122 1.171555,1.767517 1.171555,2.82843l0,0c0,2.209106 -1.790817,4 -4,4l0,0c-2.209106,0 -4,-1.790894 -4,-4l0,0zm2.000076,0l0,0c0,1.104553 0.895386,2 1.999924,2c1.104568,0 2,-0.895447 2,-2c0,-1.104614 -0.895432,-2 -2,-2l0,0c-1.104538,0 -1.999924,0.895386 -1.999924,2z"
       id="svg_21" />
    <line
       fill="none"
       stroke="#007f00"
       stroke-width="3"
       fill-opacity="null"
       x1="15.4657"
       y1="326.960925"
       x2="386.534311"
       y2="9.039076"
       id="svg_22"
       stroke-linejoin="null"
       stroke-linecap="null"
       transform="rotate(0.18687, 201, 168)" />
    <path
       fill="#3f7f00"
       stroke="#c9c91a"
       stroke-width="1.5"
       d="m360.952515,325.695007l0,0c0,-2.209167 1.790894,-4 4,-4l0,0c1.060852,0 2.078247,0.421387 2.82843,1.17157c0.750183,0.750122 1.17157,1.767517 1.17157,2.82843l0,0c0,2.209106 -1.790833,4 -4,4l0,0c-2.209106,0 -4,-1.790894 -4,-4l0,0zm2.000061,0l0,0c0,1.104553 0.895386,2 1.999939,2c1.104553,0 2,-0.895447 2,-2c0,-1.104614 -0.895447,-2 -2,-2l0,0c-1.104553,0 -1.999939,0.895386 -1.999939,2z"
       id="svg_23" />
    <path
       fill="#3f7f00"
       stroke="#c9c91a"
       stroke-width="1.5"
       d="m360.952515,325.695007l0,0c0,-2.209167 1.790894,-4 4,-4l0,0c1.060852,0 2.078247,0.421387 2.82843,1.17157c0.750183,0.750122 1.17157,1.767517 1.17157,2.82843l0,0c0,2.209106 -1.790833,4 -4,4l0,0c-2.209106,0 -4,-1.790894 -4,-4l0,0zm2.000061,0l0,0c0,1.104553 0.895386,2 1.999939,2c1.104553,0 2,-0.895447 2,-2c0,-1.104614 -0.895447,-2 -2,-2l0,0c-1.104553,0 -1.999939,0.895386 -1.999939,2z"
       id="svg_24" />
    <path
       fill="#3f7f00"
       stroke="#c9c91a"
       stroke-width="1.5"
       d="m360.952515,325.695007l0,0c0,-2.209167 1.790894,-4 4,-4l0,0c1.060852,0 2.078247,0.421387 2.82843,1.17157c0.750183,0.750122 1.17157,1.767517 1.17157,2.82843l0,0c0,2.209106 -1.790833,4 -4,4l0,0c-2.209106,0 -4,-1.790894 -4,-4l0,0zm2.000061,0l0,0c0,1.104553 0.895386,2 1.999939,2c1.104553,0 2,-0.895447 2,-2c0,-1.104614 -0.895447,-2 -2,-2l0,0c-1.104553,0 -1.999939,0.895386 -1.999939,2z"
       id="svg_25" />
    <path
       fill="#3f7f00"
       stroke="#c9c91a"
       stroke-width="1.5"
       d="m360.952515,325.695007l0,0c0,-2.209167 1.790894,-4 4,-4l0,0c1.060852,0 2.078247,0.421387 2.82843,1.17157c0.750183,0.750122 1.17157,1.767517 1.17157,2.82843l0,0c0,2.209106 -1.790833,4 -4,4l0,0c-2.209106,0 -4,-1.790894 -4,-4l0,0zm2.000061,0l0,0c0,1.104553 0.895386,2 1.999939,2c1.104553,0 2,-0.895447 2,-2c0,-1.104614 -0.895447,-2 -2,-2l0,0c-1.104553,0 -1.999939,0.895386 -1.999939,2z"
       id="svg_26" />
    <path
       fill="#7f0000"
       stroke="#bf0000"
       stroke-width="1.5"
       d="m401.952515,310.695007l0,0c0,-2.209167 1.790894,-4 4,-4l0,0c1.060852,0 2.078247,0.421387 2.82843,1.17157c0.750183,0.750122 1.17157,1.767517 1.17157,2.82843l0,0c0,2.209106 -1.790833,4 -4,4l0,0c-2.209106,0 -4,-1.790894 -4,-4l0,0zm2.000061,0l0,0c0,1.104553 0.895386,2 1.999939,2c1.104553,0 2,-0.895447 2,-2c0,-1.104614 -0.895447,-2 -2,-2l0,0c-1.104553,0 -1.999939,0.895386 -1.999939,2z"
       id="svg_27" />
    <path
       fill="#7f0000"
       stroke="#bf0000"
       stroke-width="1.5"
       d="m424.952515,279.695007l0,0c0,-2.209167 1.790894,-4 4,-4l0,0c1.060852,0 2.078247,0.421387 2.82843,1.17157c0.750183,0.750122 1.17157,1.767517 1.17157,2.82843l0,0c0,2.209106 -1.790833,4 -4,4l0,0c-2.209106,0 -4,-1.790894 -4,-4l0,0zm2.000061,0l0,0c0,1.104553 0.895386,2 1.999939,2c1.104553,0 2,-0.895447 2,-2c0,-1.104614 -0.895447,-2 -2,-2l0,0c-1.104553,0 -1.999939,0.895386 -1.999939,2z"
       id="svg_28" />
    <path
       fill="#7f0000"
       stroke="#bf0000"
       stroke-width="1.5"
       d="m481.952515,293.695007l0,0c0,-2.209167 1.790894,-4 4,-4l0,0c1.060852,0 2.078247,0.421387 2.82843,1.17157c0.750183,0.750122 1.17157,1.767517 1.17157,2.82843l0,0c0,2.209106 -1.790833,4 -4,4l0,0c-2.209106,0 -4,-1.790894 -4,-4l0,0zm2.000061,0l0,0c0,1.104553 0.895386,2 1.999939,2c1.104553,0 2,-0.895447 2,-2c0,-1.104614 -0.895447,-2 -2,-2l0,0c-1.104553,0 -1.999939,0.895386 -1.999939,2z"
       id="svg_29" />
    <path
       fill="#7f0000"
       stroke="#7f0000"
       stroke-width="1.5"
       d="m360.952515,325.695007l0,0c0,-2.209167 1.790894,-4 4,-4l0,0c1.060852,0 2.078247,0.421387 2.82843,1.17157c0.750183,0.750122 1.17157,1.767517 1.17157,2.82843l0,0c0,2.209106 -1.790833,4 -4,4l0,0c-2.209106,0 -4,-1.790894 -4,-4l0,0zm2.000061,0l0,0c0,1.104553 0.895386,2 1.999939,2c1.104553,0 2,-0.895447 2,-2c0,-1.104614 -0.895447,-2 -2,-2l0,0c-1.104553,0 -1.999939,0.895386 -1.999939,2z"
       id="svg_30" />
    <path
       fill="#7f0000"
       stroke="#bf0000"
       stroke-width="1.5"
       d="m446.952515,261.695007l0,0c0,-2.209167 1.790894,-4 4,-4l0,0c1.060852,0 2.078247,0.421387 2.82843,1.17157c0.750183,0.750122 1.17157,1.767517 1.17157,2.82843l0,0c0,2.209106 -1.790833,4 -4,4l0,0c-2.209106,0 -4,-1.790894 -4,-4l0,0zm2.000061,0l0,0c0,1.104553 0.895386,2 1.999939,2c1.104553,0 2,-0.895447 2,-2c0,-1.104614 -0.895447,-2 -2,-2l0,0c-1.104553,0 -1.999939,0.895386 -1.999939,2z"
       id="svg_31" />
    <path
       fill="#7f0000"
       stroke="#bf0000"
       stroke-width="1.5"
       d="m430.952515,318.695007l0,0c0,-2.209167 1.790894,-4 4,-4l0,0c1.060852,0 2.078247,0.421387 2.82843,1.17157c0.750183,0.750122 1.17157,1.767517 1.17157,2.82843l0,0c0,2.209106 -1.790833,4 -4,4l0,0c-2.209106,0 -4,-1.790894 -4,-4l0,0zm2.000061,0l0,0c0,1.104553 0.895386,2 1.999939,2c1.104553,0 2,-0.895447 2,-2c0,-1.104614 -0.895447,-2 -2,-2l0,0c-1.104553,0 -1.999939,0.895386 -1.999939,2z"
       id="svg_32"
       transform="rotate(-16.6659, 434.953, 318.695)" />
    <path
       fill="#7f0000"
       stroke="#bf0000"
       stroke-width="1.5"
       d="m400.952515,342.695007l0,0c0,-2.209167 1.790894,-4 4,-4l0,0c1.060852,0 2.078247,0.421387 2.82843,1.17157c0.750183,0.750122 1.17157,1.767517 1.17157,2.82843l0,0c0,2.209106 -1.790833,4 -4,4l0,0c-2.209106,0 -4,-1.790894 -4,-4l0,0zm2.000061,0l0,0c0,1.104553 0.895386,2 1.999939,2c1.104553,0 2,-0.895447 2,-2c0,-1.104614 -0.895447,-2 -2,-2l0,0c-1.104553,0 -1.999939,0.895386 -1.999939,2z"
       id="svg_33" />
    <line
       fill="none"
       stroke="#bf0000"
       stroke-width="3"
       x1="220.455961"
       y1="474.988664"
       x2="608.544053"
       y2="163.011329"
       id="svg_34"
       stroke-linejoin="null"
       stroke-linecap="null"
       transform="rotate(0.18687, 414.5, 319)" />
    <line
       fill="none"
       stroke="#7f007f"
       stroke-width="4"
       fill-opacity="null"
       x1="109.394672"
       y1="-0.038225"
       x2="546.605287"
       y2="468.038186"
       id="svg_35"
       stroke-linejoin="null"
       stroke-linecap="null"
       transform="rotate(-9.88772, 328, 234)" />
    <text
       fill="#000000"
       stroke="#7f007f"
       stroke-width="0"
       stroke-opacity="null"
       fill-opacity="null"
       x="544.5"
       y="235"
       id="svg_36"
       font-size="24"
       font-family="'Shadows Into Light', serif"
       text-anchor="start"
       xml:space="preserve">x</text>
    <text
       style="cursor: move;"
       fill="#000000"
       stroke="#7f007f"
       stroke-width="0"
       stroke-opacity="null"
       fill-opacity="null"
       x="293.5"
       y="53"
       id="svg_6"
       font-size="24"
       font-family="'Shadows Into Light', serif"
       text-anchor="start"
       xml:space="preserve">y</text>
  </g>
</svg>
